<svg xmlns="http://www.w3.org/2000/svg" viewBox="0 0 100 200">
  <!-- Vertebra 1 (top, tilted right) -->
  <g transform="translate(50, 25) rotate(8)">
    <rect x="-22" y="-12" width="44" height="24" rx="6" fill="#f0fdfa" stroke="#0f766e" stroke-width="4"/>
    <ellipse cx="-26" cy="0" rx="8" ry="5" fill="#f0fdfa" stroke="#0f766e" stroke-width="3"/>
    <ellipse cx="26" cy="0" rx="8" ry="5" fill="#f0fdfa" stroke="#0f766e" stroke-width="3"/>
  </g>
  
  <!-- Vertebra 2 (tilted left) -->
  <g transform="translate(50, 70) rotate(-5)">
    <rect x="-24" y="-12" width="48" height="24" rx="6" fill="#f0fdfa" stroke="#0f766e" stroke-width="4"/>
    <ellipse cx="-28" cy="0" rx="8" ry="5" fill="#f0fdfa" stroke="#0f766e" stroke-width="3"/>
    <ellipse cx="28" cy="0" rx="8" ry="5" fill="#f0fdfa" stroke="#0f766e" stroke-width="3"/>
  </g>
  
  <!-- Vertebra 3 (tilted right) -->
  <g transform="translate(50, 115) rotate(6)">
    <rect x="-24" y="-12" width="48" height="24" rx="6" fill="#f0fdfa" stroke="#0f766e" stroke-width="4"/>
    <ellipse cx="-28" cy="0" rx="8" ry="5" fill="#f0fdfa" stroke="#0f766e" stroke-width="3"/>
    <ellipse cx="28" cy="0" rx="8" ry="5" fill="#f0fdfa" stroke="#0f766e" stroke-width="3"/>
  </g>
  
  <!-- Vertebra 4 (bottom, slight tilt) -->
  <g transform="translate(50, 160) rotate(-3)">
    <rect x="-22" y="-12" width="44" height="24" rx="6" fill="#f0fdfa" stroke="#0f766e" stroke-width="4"/>
    <ellipse cx="-26" cy="0" rx="8" ry="5" fill="#f0fdfa" stroke="#0f766e" stroke-width="3"/>
    <ellipse cx="26" cy="0" rx="8" ry="5" fill="#f0fdfa" stroke="#0f766e" stroke-width="3"/>
  </g>
</svg>